<svg width="200" height="60" viewBox="0 0 200 60" fill="none" xmlns="http://www.w3.org/2000/svg">
  <!-- Icon: Abstract tool/gear with data lines -->
  <g id="icon">
    <!-- Outer gear ring -->
    <circle cx="30" cy="30" r="18" stroke="url(#gradient1)" stroke-width="2" fill="none"/>
    <!-- Inner circle -->
    <circle cx="30" cy="30" r="10" fill="url(#gradient1)"/>
    <!-- Data lines radiating outward -->
    <line x1="30" y1="12" x2="30" y2="8" stroke="url(#gradient1)" stroke-width="2" stroke-linecap="round"/>
    <line x1="30" y1="48" x2="30" y2="52" stroke="url(#gradient1)" stroke-width="2" stroke-linecap="round"/>
    <line x1="12" y1="30" x2="8" y2="30" stroke="url(#gradient1)" stroke-width="2" stroke-linecap="round"/>
    <line x1="48" y1="30" x2="52" y2="30" stroke="url(#gradient1)" stroke-width="2" stroke-linecap="round"/>
    <!-- Diagonal lines -->
    <line x1="42.43" y1="17.57" x2="45.66" y2="14.34" stroke="url(#gradient1)" stroke-width="2" stroke-linecap="round"/>
    <line x1="17.57" y1="42.43" x2="14.34" y2="45.66" stroke="url(#gradient1)" stroke-width="2" stroke-linecap="round"/>
    <line x1="42.43" y1="42.43" x2="45.66" y2="45.66" stroke="url(#gradient1)" stroke-width="2" stroke-linecap="round"/>
    <line x1="17.57" y1="17.57" x2="14.34" y2="14.34" stroke="url(#gradient1)" stroke-width="2" stroke-linecap="round"/>
    <!-- Small dots on gear -->
    <circle cx="30" cy="20" r="1.5" fill="url(#gradient1)"/>
    <circle cx="30" cy="40" r="1.5" fill="url(#gradient1)"/>
    <circle cx="20" cy="30" r="1.5" fill="url(#gradient1)"/>
    <circle cx="40" cy="30" r="1.5" fill="url(#gradient1)"/>
  </g>
  
  <!-- Text: RebTools -->
  <g id="text">
    <text x="60" y="38" font-family="system-ui, -apple-system, sans-serif" font-size="24" font-weight="700" fill="url(#gradient2)">
      RebTools
    </text>
  </g>
  
  <!-- Gradients -->
  <defs>
    <linearGradient id="gradient1" x1="0%" y1="0%" x2="100%" y2="100%">
      <stop offset="0%" style="stop-color:#0ea5e9;stop-opacity:1" />
      <stop offset="100%" style="stop-color:#22c55e;stop-opacity:1" />
    </linearGradient>
    <linearGradient id="gradient2" x1="0%" y1="0%" x2="100%" y2="0%">
      <stop offset="0%" style="stop-color:#0ea5e9;stop-opacity:1" />
      <stop offset="100%" style="stop-color:#22c55e;stop-opacity:1" />
    </linearGradient>
  </defs>
</svg>

